<mxfile host="app.diagrams.net" modified="2023-10-04T15:45:08.171Z" agent="Mozilla/5.0 (Windows NT 10.0; Win64; x64) AppleWebKit/537.36 (KHTML, like Gecko) Chrome/117.0.0.0 Safari/537.36" etag="To_Jst43oCA2iCrm0GMb" version="22.0.2" type="device">
  <diagram name="Leht-1" id="cutIZOZJN0aSNv438_eW">
    <mxGraphModel dx="1195" dy="625" grid="1" gridSize="10" guides="1" tooltips="1" connect="1" arrows="1" fold="1" page="1" pageScale="1" pageWidth="827" pageHeight="1169" math="0" shadow="0">
      <root>
        <mxCell id="0" />
        <mxCell id="1" parent="0" />
        <mxCell id="dd-lzdHQ18cfzFALBFP9-8" style="edgeStyle=orthogonalEdgeStyle;rounded=0;orthogonalLoop=1;jettySize=auto;html=1;entryX=0.5;entryY=0;entryDx=0;entryDy=0;endArrow=none;endFill=0;" edge="1" parent="1" source="dd-lzdHQ18cfzFALBFP9-2" target="dd-lzdHQ18cfzFALBFP9-7">
          <mxGeometry relative="1" as="geometry" />
        </mxCell>
        <mxCell id="dd-lzdHQ18cfzFALBFP9-9" style="edgeStyle=orthogonalEdgeStyle;rounded=0;orthogonalLoop=1;jettySize=auto;html=1;exitX=0;exitY=0;exitDx=0;exitDy=0;entryX=0.5;entryY=0;entryDx=0;entryDy=0;endArrow=none;endFill=0;" edge="1" parent="1" source="dd-lzdHQ18cfzFALBFP9-2" target="dd-lzdHQ18cfzFALBFP9-4">
          <mxGeometry relative="1" as="geometry">
            <Array as="points">
              <mxPoint x="332" y="160" />
              <mxPoint x="200" y="160" />
            </Array>
          </mxGeometry>
        </mxCell>
        <mxCell id="dd-lzdHQ18cfzFALBFP9-27" style="edgeStyle=orthogonalEdgeStyle;rounded=0;orthogonalLoop=1;jettySize=auto;html=1;entryX=0;entryY=0.5;entryDx=0;entryDy=0;endArrow=none;endFill=0;" edge="1" parent="1" source="dd-lzdHQ18cfzFALBFP9-2" target="dd-lzdHQ18cfzFALBFP9-26">
          <mxGeometry relative="1" as="geometry" />
        </mxCell>
        <mxCell id="dd-lzdHQ18cfzFALBFP9-2" value="Avaleht" style="ellipse;whiteSpace=wrap;html=1;aspect=fixed;" vertex="1" parent="1">
          <mxGeometry x="320" y="120" width="80" height="80" as="geometry" />
        </mxCell>
        <mxCell id="dd-lzdHQ18cfzFALBFP9-3" value="&lt;font style=&quot;font-size: 24px;&quot;&gt;E-poe graafiline esitamine&lt;/font&gt;" style="text;html=1;align=center;verticalAlign=middle;resizable=0;points=[];autosize=1;strokeColor=none;fillColor=none;" vertex="1" parent="1">
          <mxGeometry x="60" y="50" width="300" height="40" as="geometry" />
        </mxCell>
        <mxCell id="dd-lzdHQ18cfzFALBFP9-10" style="edgeStyle=orthogonalEdgeStyle;rounded=0;orthogonalLoop=1;jettySize=auto;html=1;exitX=0.5;exitY=1;exitDx=0;exitDy=0;entryX=0.5;entryY=0;entryDx=0;entryDy=0;endArrow=none;endFill=0;" edge="1" parent="1" source="dd-lzdHQ18cfzFALBFP9-4" target="dd-lzdHQ18cfzFALBFP9-5">
          <mxGeometry relative="1" as="geometry" />
        </mxCell>
        <mxCell id="dd-lzdHQ18cfzFALBFP9-4" value="Konto sisselogimine" style="ellipse;whiteSpace=wrap;html=1;aspect=fixed;" vertex="1" parent="1">
          <mxGeometry x="160" y="250" width="80" height="80" as="geometry" />
        </mxCell>
        <mxCell id="dd-lzdHQ18cfzFALBFP9-5" value="Konto&lt;br&gt;andmed" style="ellipse;whiteSpace=wrap;html=1;aspect=fixed;" vertex="1" parent="1">
          <mxGeometry x="160" y="380" width="80" height="80" as="geometry" />
        </mxCell>
        <mxCell id="dd-lzdHQ18cfzFALBFP9-31" style="edgeStyle=orthogonalEdgeStyle;rounded=0;orthogonalLoop=1;jettySize=auto;html=1;entryX=0.5;entryY=0;entryDx=0;entryDy=0;endArrow=none;endFill=0;" edge="1" parent="1" source="dd-lzdHQ18cfzFALBFP9-6" target="dd-lzdHQ18cfzFALBFP9-13">
          <mxGeometry relative="1" as="geometry" />
        </mxCell>
        <mxCell id="dd-lzdHQ18cfzFALBFP9-6" value="Toodete kataloog" style="ellipse;whiteSpace=wrap;html=1;aspect=fixed;" vertex="1" parent="1">
          <mxGeometry x="320" y="350" width="80" height="80" as="geometry" />
        </mxCell>
        <mxCell id="dd-lzdHQ18cfzFALBFP9-30" style="edgeStyle=orthogonalEdgeStyle;rounded=0;orthogonalLoop=1;jettySize=auto;html=1;entryX=0.5;entryY=0;entryDx=0;entryDy=0;endArrow=none;endFill=0;" edge="1" parent="1" source="dd-lzdHQ18cfzFALBFP9-7" target="dd-lzdHQ18cfzFALBFP9-6">
          <mxGeometry relative="1" as="geometry" />
        </mxCell>
        <mxCell id="dd-lzdHQ18cfzFALBFP9-7" value="Otsingufiltrid&lt;br&gt;" style="ellipse;whiteSpace=wrap;html=1;aspect=fixed;" vertex="1" parent="1">
          <mxGeometry x="320" y="220" width="80" height="80" as="geometry" />
        </mxCell>
        <mxCell id="dd-lzdHQ18cfzFALBFP9-32" style="edgeStyle=orthogonalEdgeStyle;rounded=0;orthogonalLoop=1;jettySize=auto;html=1;entryX=0;entryY=0.5;entryDx=0;entryDy=0;endArrow=none;endFill=0;" edge="1" parent="1" source="dd-lzdHQ18cfzFALBFP9-13" target="dd-lzdHQ18cfzFALBFP9-15">
          <mxGeometry relative="1" as="geometry" />
        </mxCell>
        <mxCell id="dd-lzdHQ18cfzFALBFP9-13" value="Toote info" style="ellipse;whiteSpace=wrap;html=1;aspect=fixed;" vertex="1" parent="1">
          <mxGeometry x="320" y="470" width="80" height="80" as="geometry" />
        </mxCell>
        <mxCell id="dd-lzdHQ18cfzFALBFP9-33" style="edgeStyle=orthogonalEdgeStyle;rounded=0;orthogonalLoop=1;jettySize=auto;html=1;entryX=0;entryY=0.5;entryDx=0;entryDy=0;endArrow=none;endFill=0;" edge="1" parent="1" source="dd-lzdHQ18cfzFALBFP9-15" target="dd-lzdHQ18cfzFALBFP9-19">
          <mxGeometry relative="1" as="geometry" />
        </mxCell>
        <mxCell id="dd-lzdHQ18cfzFALBFP9-15" value="Ostukorv" style="ellipse;whiteSpace=wrap;html=1;aspect=fixed;" vertex="1" parent="1">
          <mxGeometry x="430" y="470" width="80" height="80" as="geometry" />
        </mxCell>
        <mxCell id="dd-lzdHQ18cfzFALBFP9-34" style="edgeStyle=orthogonalEdgeStyle;rounded=0;orthogonalLoop=1;jettySize=auto;html=1;entryX=0.5;entryY=0;entryDx=0;entryDy=0;endArrow=none;endFill=0;" edge="1" parent="1" source="dd-lzdHQ18cfzFALBFP9-19" target="dd-lzdHQ18cfzFALBFP9-21">
          <mxGeometry relative="1" as="geometry" />
        </mxCell>
        <mxCell id="dd-lzdHQ18cfzFALBFP9-19" value="Ostu kinnitamine" style="ellipse;whiteSpace=wrap;html=1;aspect=fixed;" vertex="1" parent="1">
          <mxGeometry x="590" y="470" width="80" height="80" as="geometry" />
        </mxCell>
        <mxCell id="dd-lzdHQ18cfzFALBFP9-35" style="edgeStyle=orthogonalEdgeStyle;rounded=0;orthogonalLoop=1;jettySize=auto;html=1;entryX=1;entryY=0.5;entryDx=0;entryDy=0;endArrow=none;endFill=0;" edge="1" parent="1" source="dd-lzdHQ18cfzFALBFP9-21" target="dd-lzdHQ18cfzFALBFP9-22">
          <mxGeometry relative="1" as="geometry" />
        </mxCell>
        <mxCell id="dd-lzdHQ18cfzFALBFP9-21" value="Pangas maksmine" style="ellipse;whiteSpace=wrap;html=1;aspect=fixed;" vertex="1" parent="1">
          <mxGeometry x="590" y="580" width="80" height="80" as="geometry" />
        </mxCell>
        <mxCell id="dd-lzdHQ18cfzFALBFP9-22" value="Tellimuse kinnitamine" style="ellipse;whiteSpace=wrap;html=1;aspect=fixed;" vertex="1" parent="1">
          <mxGeometry x="430" y="580" width="80" height="80" as="geometry" />
        </mxCell>
        <mxCell id="dd-lzdHQ18cfzFALBFP9-29" style="edgeStyle=orthogonalEdgeStyle;rounded=0;orthogonalLoop=1;jettySize=auto;html=1;entryX=0.5;entryY=0;entryDx=0;entryDy=0;endArrow=none;endFill=0;" edge="1" parent="1" source="dd-lzdHQ18cfzFALBFP9-26" target="dd-lzdHQ18cfzFALBFP9-28">
          <mxGeometry relative="1" as="geometry" />
        </mxCell>
        <mxCell id="dd-lzdHQ18cfzFALBFP9-26" value="Klienditeenindus" style="ellipse;whiteSpace=wrap;html=1;aspect=fixed;" vertex="1" parent="1">
          <mxGeometry x="460" y="110" width="100" height="100" as="geometry" />
        </mxCell>
        <mxCell id="dd-lzdHQ18cfzFALBFP9-28" value="Mure avalduse kirjutamine" style="ellipse;whiteSpace=wrap;html=1;aspect=fixed;" vertex="1" parent="1">
          <mxGeometry x="470" y="250" width="80" height="80" as="geometry" />
        </mxCell>
      </root>
    </mxGraphModel>
  </diagram>
</mxfile>
